<svg width="307" height="342" viewBox="0 0 315 350" fill="none" xmlns="http://www.w3.org/2000/svg">
<g filter="url(#filter0_d_306_49)">
<g clip-path="url(#clip0_306_49)">
<path fill-rule="evenodd" clip-rule="evenodd" d="M239.914 52.2649C235.541 54.5554 231.36 55.4811 229.495 54.7908C224.821 53.0597 226.009 34.4004 230.358 27.3837C234.706 20.3671 254.037 18.8342 253.724 33.4629C253.616 38.54 251.227 42.8705 247.959 46.2887L250.953 72.9238L235.605 71.581L239.914 52.2649Z" fill="#DCAE92"/>
<path fill-rule="evenodd" clip-rule="evenodd" d="M224.448 16.6122C224.87 15.4527 225.814 14.511 226.992 14.3102C227.278 14.2615 227.569 14.2571 227.856 14.2946C227.958 14.308 227.985 14.3422 228.04 14.2697C228.08 14.216 228.093 14.0773 228.114 14.0118C228.178 13.8082 228.253 13.6081 228.341 13.4146C228.642 12.7545 229.099 12.187 229.632 11.7218C230.629 10.8516 231.92 10.3038 233.213 10.2974C233.921 10.2939 234.607 10.476 235.249 10.7767C235.581 10.9323 235.901 11.1179 236.21 11.3191C236.303 11.3798 236.598 11.6623 236.697 11.6544C236.807 11.6457 237.05 11.3788 237.144 11.3147C238.31 10.5228 239.684 10.2915 241.038 10.4207C242.567 10.5666 244.033 10.7766 245.222 11.8793C245.474 12.1127 245.711 12.365 245.934 12.6283C246.052 12.7669 246.166 12.91 246.273 13.058C246.337 13.1473 246.4 13.2383 246.46 13.3314C246.561 13.4894 246.538 13.5363 246.707 13.4471C247.356 13.1044 248.084 12.9812 248.792 13.1375C249.213 13.2303 249.615 13.4024 249.993 13.6154C250.121 13.688 250.41 13.9578 250.552 13.9726C250.694 13.9873 251.019 13.7891 251.169 13.7447C251.984 13.5047 252.839 13.5027 253.654 13.7179C254.495 13.9399 255.302 14.3753 255.982 14.9388C256.309 15.2098 256.589 15.503 256.801 15.8821C256.893 16.0457 256.974 16.2175 257.081 16.3711C257.143 16.4611 257.274 16.5593 257.302 16.6687C257.285 16.6031 258.276 16.2951 258.368 16.2779C258.86 16.1866 259.347 16.2564 259.804 16.4622C260.662 16.8492 261.362 17.6099 261.925 18.3763C262.214 18.77 262.46 19.1986 262.661 19.65C262.758 19.8662 262.844 20.0875 262.92 20.3125C262.958 20.4215 262.977 20.5554 263.03 20.6553C263.098 20.784 263.15 20.7909 263.288 20.8565C263.989 21.1896 264.609 21.7038 265.058 22.3646C265.512 23.0331 265.775 23.8304 265.843 24.6518C265.847 24.7001 265.834 24.8981 265.858 24.9262C265.891 24.9649 266.038 24.9619 266.093 24.9736C266.281 25.0141 266.468 25.0661 266.651 25.1295C266.988 25.2463 267.312 25.4032 267.615 25.5978C268.794 26.3563 269.572 27.653 269.885 29.0628C270.213 30.5423 270.061 32.1911 269.394 33.5565C269.287 33.7771 269.163 33.9895 269.022 34.1883C268.936 34.3103 268.911 34.3086 268.948 34.4478C268.99 34.6027 269.077 34.7573 269.128 34.9097C269.297 35.4069 269.401 35.9276 269.448 36.4544C269.527 37.3185 269.524 38.2192 269.299 39.0633C269.194 39.4552 269.038 39.8336 268.82 40.1718C268.71 40.3443 268.584 40.506 268.444 40.6537C268.372 40.7303 268.296 40.8029 268.217 40.8719C268.172 40.9113 268.115 40.9442 268.075 40.9893C267.979 41.0989 267.97 41.001 267.999 41.177C268.04 41.423 268.159 41.6727 268.225 41.9143C268.292 42.1633 268.351 42.4149 268.402 42.6684C268.507 43.1815 268.587 43.7017 268.621 44.2265C268.684 45.2342 268.565 46.2915 268.042 47.1654C267.819 47.5393 267.518 47.8581 267.165 48.0957C266.992 48.2119 266.808 48.3089 266.617 48.3852C266.518 48.4244 266.397 48.4343 266.345 48.5272C266.29 48.6272 266.34 48.8397 266.346 48.9573C266.393 49.9807 266.369 51.0487 265.999 52.0151C265.659 52.9054 265.014 53.6612 264.223 54.1297C262.687 55.0386 260.744 54.8098 259.299 53.8481C258.922 53.5975 258.575 53.2968 258.272 52.9515C257.326 54.0812 255.598 53.8918 254.399 53.4413C252.905 52.8802 251.775 51.6409 251.197 50.0919C250.119 51.2598 248.123 50.6756 247.571 49.2581C247.435 48.9112 247.37 48.5361 247.355 48.161C247.346 47.9638 247.38 47.7684 247.378 47.5732C247.375 47.3246 247.241 47.0714 247.173 46.8252C247.04 46.3458 246.974 45.8569 247.013 45.3558C247.034 45.0941 247.087 44.8421 247.133 44.5848C247.175 44.3532 247.133 44.1304 247.118 43.8969C247.505 44.0001 247.994 43.9293 248.374 43.8407C248.748 43.7537 249.115 43.4706 249.397 43.2073C250.05 42.596 250.489 41.7581 250.814 40.9143C251.526 39.0623 251.502 36.7634 249.795 35.5635C249 35.0045 246.49 34.7866 245.472 34.9393C244.401 35.0999 242.996 37.4557 242.917 37.6818C242.869 37.8217 242.871 38.0004 242.739 38.0849C242.449 38.2708 242.033 37.8677 241.848 37.6706C241.529 37.3305 241.318 36.8966 241.141 36.46C240.755 35.5086 240.465 34.4993 240.287 33.4794C240.15 32.693 240.088 31.8891 239.887 31.1168C239.686 30.3483 239.325 29.6456 238.71 29.1664C238.041 28.6451 237.25 28.3322 236.496 27.9755C235.75 27.622 235.022 27.2061 234.477 26.5469C234.357 26.4019 234.242 26.2489 234.15 26.0825C234.077 25.9512 234.016 25.7066 233.895 25.6168C233.708 25.4771 233.391 25.77 233.21 25.8705C232.316 26.3666 231.542 27.0999 230.897 27.9186C230.257 28.7327 229.72 29.5232 229.259 30.4546C228.917 31.1454 228.663 32.0462 228.12 32.5894C227.878 32.8319 226.233 32.8476 225.724 32.5729C225.216 32.2981 224.676 31.6529 224.531 31.2656C224.383 30.8691 224.376 30.4473 224.49 30.0373C224.557 29.7963 224.67 29.5754 224.742 29.3391C224.803 29.1407 224.858 28.9529 224.967 28.7757C225.173 28.44 225.496 28.2139 225.866 28.14C225.522 27.7383 225.249 27.2699 225.076 26.7577C224.897 26.2258 224.761 25.5859 224.757 25.0189C224.753 24.5583 224.862 24.0909 225.131 23.719C225.414 23.3288 225.875 23.0984 226.276 22.8746C225.74 22.3435 225.296 21.7159 224.947 21.0333C224.266 19.7059 223.915 18.0771 224.448 16.6122Z" fill="black"/>
<path fill-rule="evenodd" clip-rule="evenodd" d="M251.134 129.781L220.202 213.521L203.549 276.969L192.49 276.001L216.67 126.766L251.134 129.781Z" fill="#DCAE92"/>
<path fill-rule="evenodd" clip-rule="evenodd" d="M251.134 129.781L220.202 213.521L203.549 276.969L192.49 276.001L216.67 126.766L251.134 129.781Z" fill="black" fill-opacity="0.1"/>
<path fill-rule="evenodd" clip-rule="evenodd" d="M261.661 130.703C256.128 175.126 254.646 199.491 254.657 203.572C254.669 207.653 254.373 234.953 264.373 283.66L252.871 282.653C238.112 235.476 233.942 207.785 232.315 201.617C230.688 195.45 226.467 170.586 220.928 127.139L261.661 130.703Z" fill="#DCAE92"/>
<path fill-rule="evenodd" clip-rule="evenodd" d="M251.636 129.825C242.961 158.813 228.299 205.012 207.652 268.425L191.477 267.009C196.094 200.473 205.002 157.194 216.533 126.754L251.636 129.825Z" fill="#161514"/>
<path fill-rule="evenodd" clip-rule="evenodd" d="M261.743 130.71C256.243 175.137 256.551 219.406 264.714 274.116L247.456 272.606C232.603 226.105 222.968 181.237 218.451 126.922L261.743 130.71Z" fill="#161514"/>
<path fill-rule="evenodd" clip-rule="evenodd" d="M265.239 292.639L265.531 282.562C265.544 282.125 265.172 281.792 264.763 281.848C259.111 282.615 251.712 279.128 251.712 279.128C243.512 284.247 232.187 285.934 228.212 286.389C227.443 286.477 226.887 287.244 227.028 288.049L227.616 291.401L250.464 293.4L263.792 294.566L265.239 292.639Z" fill="#191847"/>
<path fill-rule="evenodd" clip-rule="evenodd" d="M205.126 287.379L205.418 277.303C205.43 276.865 205.058 276.533 204.649 276.588C198.997 277.355 191.599 273.869 191.599 273.869C183.398 278.987 172.074 280.675 168.099 281.129C167.329 281.217 166.774 281.985 166.915 282.79L167.502 286.142L190.35 288.141L203.678 289.307L205.126 287.379Z" fill="#191847"/>
<path fill-rule="evenodd" clip-rule="evenodd" d="M175.884 130.481L197.676 116.347L201.149 128.587L180.169 135.723C173.832 142.355 170.378 145.049 169.805 143.804C169.323 142.754 169.85 141.857 170.336 141.032C170.714 140.387 171.068 139.787 170.899 139.191C170.512 137.828 166.662 137.632 163 137.611C159.337 137.589 160.547 135.963 161.498 135.191C165.417 133.154 170.212 131.584 175.884 130.481ZM280.408 167.892C278.887 163.687 275.951 123.748 275.951 123.748L262.582 122.635C262.582 122.635 271.244 166.182 272.003 168.867C272.989 172.354 270.384 177.067 268.617 180.264C268.343 180.758 268.09 181.216 267.873 181.628C269.836 182.781 270.923 181.69 272.069 180.54C273.363 179.24 274.732 177.866 277.524 179.563C278.603 180.22 279.612 180.972 280.598 181.707C284.004 184.246 287.133 186.579 291.89 184.022C292.645 183.616 293.58 181.924 291.812 180.382C287.407 176.542 281.151 169.947 280.408 167.892Z" fill="#DCAE92"/>
<path fill-rule="evenodd" clip-rule="evenodd" d="M243.186 60.8293L237.744 59.3375C215.579 76.379 203.986 111.829 177.159 128.799L182.515 137.302C226.647 135.378 241.322 92.1846 243.186 60.8293Z" fill="#C5CFD6"/>
<path fill-rule="evenodd" clip-rule="evenodd" d="M260.831 136.794C260.831 136.794 227.571 133.884 211.901 132.513C209.665 132.317 210.387 128.923 210.862 127.22C216.34 107.564 232.786 87.299 235.274 58.8555L249.593 57.7382C259.521 78.7127 261.409 103.632 260.831 136.794Z" fill="#C7D1D9"/>
<path fill-rule="evenodd" clip-rule="evenodd" d="M265.084 151.547C266.792 157.353 268.52 162.439 270.223 166.379L280.716 167.297C285.24 128.601 274.031 97.5401 264.039 78.529C266.624 78.5586 269.042 77.6193 270.753 74.9377C276.777 65.4967 275.391 59.8873 270.035 57.6147C267.089 56.3651 264.18 56.7876 260.697 57.2934C257.846 57.7072 254.611 58.1768 250.66 57.8316C250.659 57.8314 250.657 57.8313 250.656 57.8312C250.273 57.7977 249.922 57.7945 249.602 57.819L244.893 57.6932C244.893 57.6932 219.887 124.517 226.41 148.164L265.084 151.547Z" fill="#F2F2F2"/>
<path fill-rule="evenodd" clip-rule="evenodd" d="M265.084 151.547C262.843 143.93 260.636 135.075 258.566 125.949C256.651 135.633 254.026 145.297 250.629 150.283L265.084 151.547Z" fill="black" fill-opacity="0.1"/>
</g>
<g clip-path="url(#clip1_306_49)">
<path fill-rule="evenodd" clip-rule="evenodd" d="M120.013 39.1604C115.831 41.1834 111.825 41.9872 110.032 41.3592C105.537 39.7844 106.571 23.1059 110.702 16.8565C114.833 10.6072 133.371 9.34761 133.155 22.4269C133.081 26.9663 130.814 30.8249 127.698 33.8627L130.723 57.6973L115.99 56.4083L120.013 39.1604Z" fill="#DCAE92"/>
<path fill-rule="evenodd" clip-rule="evenodd" d="M128.574 36.8878C131.135 28.9098 136.888 23.822 136.402 20.1135C135.916 16.405 132.509 15.2134 132.509 15.2134C132.509 15.2134 131.338 7.84295 121.423 8.06073C111.507 8.2785 105.16 11.7898 106.971 20.8965C109.351 21.1046 112.298 20.5045 116.143 22.3109C117.973 23.1706 118.471 26.854 118.471 26.854L120.266 27.0111C120.266 27.0111 123.254 22.9531 125.695 24.3115C128.136 25.6699 126.367 29.9322 126.367 29.9322L126.664 36.7207L128.574 36.8878Z" fill="black"/>
<path fill-rule="evenodd" clip-rule="evenodd" d="M131.224 108.541L102.029 183.244L86.416 239.883L75.8002 238.955L98.141 105.647L131.224 108.541Z" fill="#DCAE92"/>
<path fill-rule="evenodd" clip-rule="evenodd" d="M131.224 108.541L102.029 183.244L86.416 239.883L75.8002 238.955L98.141 105.647L131.224 108.541Z" fill="black" fill-opacity="0.1"/>
<path fill-rule="evenodd" clip-rule="evenodd" d="M141.329 109.425C136.275 149.118 134.994 170.896 135.028 174.545C135.063 178.195 134.936 202.605 144.81 246.216L133.769 245.25C119.338 202.979 115.177 178.194 113.582 172.669C111.985 167.144 107.792 144.887 102.228 106.004L141.329 109.425Z" fill="#DCAE92"/>
<path fill-rule="evenodd" clip-rule="evenodd" d="M131.706 108.583C123.549 134.454 109.748 175.682 90.3033 232.267L74.7765 230.909C78.8241 171.437 87.1213 132.788 98.0097 105.635L131.706 108.583Z" fill="#161514"/>
<path fill-rule="evenodd" clip-rule="evenodd" d="M141.408 109.432C136.387 149.127 136.936 188.715 145.082 237.684L128.516 236.235C113.999 194.568 104.496 154.391 99.8507 105.796L141.408 109.432Z" fill="#161514"/>
<path fill-rule="evenodd" clip-rule="evenodd" d="M145.693 254.25L145.915 245.241C145.925 244.851 145.566 244.551 145.174 244.598C139.755 245.252 132.637 242.091 132.637 242.091C124.799 246.621 113.944 248.065 110.133 248.449C109.395 248.523 108.866 249.206 109.006 249.927L109.589 252.928L131.521 254.847L144.315 255.966L145.693 254.25Z" fill="#191847"/>
<path fill-rule="evenodd" clip-rule="evenodd" d="M87.9885 249.202L88.2107 240.193C88.2202 239.802 87.8616 239.503 87.469 239.55C82.0507 240.203 74.9327 237.043 74.9327 237.043C67.0943 241.573 56.2394 243.017 52.4282 243.4C51.6905 243.474 51.1619 244.158 51.3017 244.878L51.8848 247.879L73.8168 249.798L86.6106 250.917L87.9885 249.202Z" fill="#191847"/>
<path fill-rule="evenodd" clip-rule="evenodd" d="M61.5556 32.6495L84.2194 41.5965L77.4215 50.869L60.2516 38.7514C51.8501 37.515 47.932 36.3417 48.4973 35.2317C48.9745 34.2958 49.9214 34.2121 50.7936 34.135C51.4731 34.0749 52.1071 34.0188 52.4386 33.5671C53.195 32.5353 51.1258 29.4962 49.0382 26.6951C46.95 23.8939 48.8133 23.9349 49.9142 24.2412C53.6267 26.1236 57.5074 28.9264 61.5556 32.6495ZM61.8978 94.8814L82.724 82.3671L86.1268 93.3334L66.0396 99.593C59.9975 105.487 56.6988 107.876 56.1426 106.76C55.6732 105.818 56.1742 105.019 56.6357 104.283C56.9952 103.71 57.3309 103.175 57.1648 102.641C56.786 101.42 53.0913 101.222 49.5775 101.183C46.0638 101.143 47.2154 99.6949 48.1235 99.0093C51.871 97.2107 56.4625 95.8347 61.8978 94.8814Z" fill="#DCAE92"/>
<path fill-rule="evenodd" clip-rule="evenodd" d="M116.491 46.7126C104.107 65.4531 87.3678 79.185 63.6412 92.9065L71.2798 103.09C97.0424 96.0962 110.7 91.7113 118.795 73.69C120.827 69.167 123.263 54.395 124.921 46.6556L116.491 46.7126Z" fill="#1B1C33"/>
<path fill-rule="evenodd" clip-rule="evenodd" d="M140.567 114.867L93.2988 110.732C93.2988 110.732 113.6 63.6712 115.528 45.6397C115.593 45.0268 116.834 44.0454 117.328 44.2313C122.753 46.2718 129.331 44.1105 129.331 44.1105C138.977 62.9231 140.932 85.2173 140.567 114.867Z" fill="#F2F2F2"/>
<path fill-rule="evenodd" clip-rule="evenodd" d="M115.095 70.279C104.971 100.967 103.067 126.646 119.366 128.072L144.569 130.277C150.901 104.01 143.609 66.1837 135.485 46.7154C135.174 45.972 134.499 44.5626 132.631 44.3991L125.307 43.7584C125.303 43.7677 125.299 43.7771 125.295 43.7863C123.09 43.6114 120.656 43.4788 118.02 43.3352C104.451 42.5959 85.5305 41.565 64.8914 32.9643L61.306 45.1201C79.4001 58.9898 97.976 70.1329 115.095 70.279Z" fill="#4A4A64"/>
</g>
<path d="M257.892 341.432L272.005 329.2L19.5322 246.537L5.82269 252.934L257.892 341.432Z" fill="#2704C4" fill-opacity="0.6" stroke="black"/>
<path d="M272.5 328.772V182.095L258.5 194.229V340.905L272.5 328.772Z" fill="#2704C4" fill-opacity="0.8" stroke="black"/>
<path d="M257.873 193.942L271.999 181.228L34.1272 111.558L20.0007 124.272L257.873 193.942Z" fill="#2704C4" fill-opacity="0.8" stroke="black"/>
<path d="M19.3658 222.995L4.69704 252.919L257.5 341.296V194.557L19.7451 125.238L31.8261 165.263L31.914 165.554L31.696 165.766L10.3559 186.517L19.4018 222.654L19.4462 222.831L19.3658 222.995Z" fill="#2704C4" fill-opacity="0.75" stroke="black"/>
<path d="M36.5995 130.401L19.7522 125.253L31.9783 165.354L32.0679 165.648L31.846 165.861L10.3844 186.433L13.4854 199.88L19.4833 222.502L19.5314 222.684L19.4483 222.852L4.80462 252.5H4.88563L19.1478 245.615L32.9593 222.56L23.0196 188.139L22.9326 187.838L23.1659 187.628L47.4286 165.841L36.5995 130.401Z" fill="#2704C4" fill-opacity="0.6" stroke="#180084"/>
<path d="M157.661 152.056C158.2 155.116 155.382 157.434 150.736 158.253C146.09 159.072 140.398 157.562 139.859 154.502C139.319 151.442 143.625 148.818 148.271 147.998C152.917 147.179 157.121 148.996 157.661 152.056Z" fill="black"/>
<path d="M155.969 149.408C156.17 150.548 155.64 151.722 154.509 152.71C153.379 153.698 151.65 154.496 149.47 154.881C147.29 155.265 145.235 155.143 143.677 154.636C142.116 154.128 141.066 153.241 140.866 152.105C140.664 150.961 141.188 149.482 142.313 148.189C143.437 146.897 145.157 145.798 147.332 145.415C149.507 145.031 151.567 145.456 153.134 146.265C154.703 147.075 155.767 148.266 155.969 149.408Z" fill="#FF003D" stroke="black" stroke-width="0.1"/>
</g>
<defs>
<filter id="filter0_d_306_49" x="0" y="0" width="314.481" height="350" filterUnits="userSpaceOnUse" color-interpolation-filters="sRGB">
<feFlood flood-opacity="0" result="BackgroundImageFix"/>
<feColorMatrix in="SourceAlpha" type="matrix" values="0 0 0 0 0 0 0 0 0 0 0 0 0 0 0 0 0 0 127 0" result="hardAlpha"/>
<feOffset dy="4"/>
<feGaussianBlur stdDeviation="2"/>
<feComposite in2="hardAlpha" operator="out"/>
<feColorMatrix type="matrix" values="0 0 0 0 0 0 0 0 0 0 0 0 0 0 0 0 0 0 0.25 0"/>
<feBlend mode="normal" in2="BackgroundImageFix" result="effect1_dropShadow_306_49"/>
<feBlend mode="normal" in="SourceGraphic" in2="effect1_dropShadow_306_49" result="shape"/>
</filter>
<clipPath id="clip0_306_49">
<rect width="140" height="287" fill="white" transform="matrix(-0.996195 -0.0871557 -0.0871557 0.996195 310.481 14.2017)"/>
</clipPath>
<clipPath id="clip1_306_49">
<rect width="118" height="250" fill="white" transform="matrix(-0.996195 -0.0871557 -0.0871557 0.996195 167.34 10.2844)"/>
</clipPath>
</defs>
</svg>
