<svg width="307" height="342" viewBox="0 0 307 342" fill="none" xmlns="http://www.w3.org/2000/svg">
<g clip-path="url(#clip0_306_48)">
<path fill-rule="evenodd" clip-rule="evenodd" d="M187.299 34.9994C191.252 37.1839 195.066 38.1164 196.796 37.5237C201.136 36.0371 200.552 18.9507 196.751 12.4451C192.949 5.9396 175.242 4.13976 175.131 17.5225C175.092 22.1672 177.167 26.1762 180.075 29.3691L176.601 53.6624L190.73 52.7507L187.299 34.9994Z" fill="#B5876D"/>
<path fill-rule="evenodd" clip-rule="evenodd" d="M185.121 20.0136C184.981 20.005 184.839 20.0051 184.696 20.0143C182.745 20.1402 181.261 21.915 181.381 23.9783C181.441 25.0258 181.904 25.9463 182.6 26.5824C181.853 27.8553 181.011 29.1891 180.038 30.5721C175.949 28.3243 171.974 20.6034 175.421 13.3179C176.287 9.80188 179.217 8.38965 182.016 7.35087C184.265 6.18089 186.654 5.91117 188.712 6.39284C192.697 6.49664 196.311 7.54685 197.358 8.24141C197.588 12.2112 196.929 13.4359 190.712 13.7329C189.235 14.6839 188.147 16.2278 187.036 18.2314C187.055 18.3784 188.562 30.1305 192.021 29.9073C194.115 29.7722 195.969 28.8036 197.446 28.0318C198.425 27.5205 199.238 27.0955 199.847 27.0562C200.96 26.9844 200.797 28.4741 200.122 29.6144C199.909 29.9759 199.347 30.3549 198.74 30.7639C197.768 31.4196 196.682 32.1523 196.732 33.0129C196.778 33.8025 197.526 33.7527 198.176 33.7094C198.677 33.676 199.12 33.6464 199.141 34.007C199.151 34.1796 199.169 34.3709 199.188 34.5738C199.317 35.9823 199.499 37.9476 197.532 38.0745C195.255 38.2215 188.677 37.7651 187.351 34.263C186.226 31.2925 185.359 22.5877 185.121 20.0136Z" fill="black"/>
<path fill-rule="evenodd" clip-rule="evenodd" d="M174.888 105.649L201.009 182.857L214.573 241.216L224.753 240.559L206.613 103.602L174.888 105.649Z" fill="#B5876D"/>
<path fill-rule="evenodd" clip-rule="evenodd" d="M174.888 105.649L201.009 182.857L214.573 241.216L224.753 240.559L206.613 103.602L174.888 105.649Z" fill="black" fill-opacity="0.1"/>
<path fill-rule="evenodd" clip-rule="evenodd" d="M165.197 106.274C169.069 147.009 169.767 169.318 169.645 173.05C169.523 176.781 169.052 201.75 158.545 246.081L169.133 245.398C183.968 202.563 188.551 177.329 190.212 171.723C191.873 166.116 196.426 143.468 202.694 103.855L165.197 106.274Z" fill="#B5876D"/>
<path fill-rule="evenodd" clip-rule="evenodd" d="M174.425 105.679C181.603 132.363 193.807 174.909 211.039 233.319L225.928 232.358C223.499 171.422 216.499 131.665 206.739 103.593L174.425 105.679Z" fill="#060606"/>
<path fill-rule="evenodd" clip-rule="evenodd" d="M165.122 106.279C168.962 147.016 167.476 187.489 158.492 237.347L174.379 236.322C189.281 194.108 199.349 153.28 204.974 103.708L165.122 106.279Z" fill="#060606"/>
<path fill-rule="evenodd" clip-rule="evenodd" d="M157.505 254.273L157.511 245.053C157.512 244.653 157.862 244.357 158.236 244.416C163.405 245.234 170.293 242.198 170.293 242.198C177.683 247.047 188.035 248.824 191.672 249.321C192.376 249.417 192.865 250.131 192.714 250.864L192.083 253.917L171.051 255.274L158.782 256.066L157.505 254.273Z" fill="#191847"/>
<path fill-rule="evenodd" clip-rule="evenodd" d="M212.842 250.702L212.848 241.482C212.849 241.082 213.199 240.786 213.574 240.845C218.742 241.663 225.63 238.627 225.63 238.627C233.02 243.477 243.372 245.253 247.009 245.75C247.713 245.847 248.202 246.56 248.051 247.293L247.42 250.346L226.388 251.703L214.119 252.495L212.842 250.702Z" fill="#191847"/>
<path fill-rule="evenodd" clip-rule="evenodd" d="M223.374 51.7003L203.627 64.8563L211.669 72.9359L225.683 57.5986C233.372 54.8139 236.853 52.9151 236.123 51.9024C235.509 51.0484 234.602 51.138 233.768 51.2204C233.117 51.2846 232.511 51.3446 232.118 50.951C231.224 50.0519 232.632 46.6156 234.101 43.4153C235.57 40.2149 233.823 40.598 232.841 41.108C229.68 43.6823 226.525 47.213 223.374 51.7003ZM244.881 66.9844L236.208 72.7788L237.272 82.2732C237.272 82.2732 242.828 77.4601 247.743 75.6624C254.011 73.3703 256.508 71.7676 259.38 67.3668C260.917 65.0122 262.071 60.4038 260.398 59.0351C259.757 58.51 257.566 59.9896 255.331 61.4992C253.627 62.6497 251.897 63.8177 250.808 64.1291C249.342 64.5483 249.398 62.501 249.442 60.8651C249.474 59.6912 249.5 58.7291 248.954 59.042C246.33 59.2592 244.881 66.9844 244.881 66.9844Z" fill="#7C533B"/>
<path fill-rule="evenodd" clip-rule="evenodd" d="M193.523 62.8615C200.675 62.3197 210.127 60.1049 219.914 52.6105L224.46 61.786C217.863 69.6129 208.337 76.3085 199.686 76.6092C192.869 76.8463 188.886 68.3631 193.523 62.8615Z" fill="#072100"/>
<mask id="mask0_306_48" style="mask-type:alpha" maskUnits="userSpaceOnUse" x="191" y="52" width="34" height="25">
<path fill-rule="evenodd" clip-rule="evenodd" d="M193.523 62.8615C200.675 62.3197 210.127 60.1049 219.914 52.6105L224.46 61.786C217.863 69.6129 208.337 76.3085 199.686 76.6092C192.869 76.8463 188.886 68.3631 193.523 62.8615Z" fill="white"/>
</mask>
<g mask="url(#mask0_306_48)">
</g>
<path fill-rule="evenodd" clip-rule="evenodd" d="M177.967 128.737C171.108 128.238 164.806 127.779 161.146 128.79C156.161 114.778 159.092 105.564 161.797 97.0587C163.427 91.9324 164.976 87.0633 164.661 81.5561C163.742 65.5186 174.485 40.0486 176.277 39.933L176.79 39.8998L190.986 38.9838L192.611 38.8789C193.916 48.7558 197.656 59.2994 201.42 69.9109C202.299 72.389 203.179 74.8708 204.03 77.3487C216.066 79.4328 241.851 67.8107 241.851 67.8107C241.851 67.8107 249.349 81.9428 249.207 88.1762C234.355 97.6434 221.425 102.272 210.605 103.22C211.343 109.997 210.936 116.518 208.65 122.599C205.587 130.748 190.803 129.672 177.967 128.737Z" fill="#345031"/>
<mask id="mask1_306_48" style="mask-type:alpha" maskUnits="userSpaceOnUse" x="158" y="38" width="92" height="92">
<path fill-rule="evenodd" clip-rule="evenodd" d="M177.967 128.737C171.108 128.238 164.806 127.779 161.146 128.79C156.161 114.778 159.092 105.564 161.797 97.0587C163.427 91.9324 164.976 87.0633 164.661 81.5561C163.742 65.5186 174.485 40.0486 176.277 39.933L176.79 39.8998L190.986 38.9838L192.611 38.8789C193.916 48.7558 197.656 59.2994 201.42 69.9109C202.299 72.389 203.179 74.8708 204.03 77.3487C216.066 79.4328 241.851 67.8107 241.851 67.8107C241.851 67.8107 249.349 81.9428 249.207 88.1762C234.355 97.6434 221.425 102.272 210.605 103.22C211.343 109.997 210.936 116.518 208.65 122.599C205.587 130.748 190.803 129.672 177.967 128.737Z" fill="white"/>
</mask>
<g mask="url(#mask1_306_48)">
</g>
</g>
<g clip-path="url(#clip1_306_48)">
<path fill-rule="evenodd" clip-rule="evenodd" d="M70.7477 57.7867C75.1775 60.0678 79.4442 61.0129 81.374 60.3563C86.2133 58.7094 85.4587 40.4598 81.1725 33.5595C76.8863 26.6592 57.0913 24.9741 57.0471 39.2756C57.0317 44.2392 59.3745 48.495 62.6426 51.8676L58.9071 77.8727L74.6875 76.7085L70.7477 57.7867Z" fill="#915B3C"/>
<path fill-rule="evenodd" clip-rule="evenodd" d="M62.0484 35.5489C71.1589 34.9431 77.4691 34.0877 81.0283 32.8125C80.6561 29.7039 77.2139 26.4126 68.7523 27.0368C59.3379 27.7314 54.6547 33.6527 55.0801 40.0718C55.4688 45.9363 59.6757 52.8032 62.5367 52.8842C63.2615 52.6672 63.8301 51.7259 64.3728 50.446C63.1663 49.972 62.2619 48.7389 62.1621 47.2328C62.0282 45.2131 63.3916 43.4674 65.2073 43.3334C65.8667 43.2848 66.495 43.4553 67.0343 43.7891C68.0993 41.7526 69.4996 40.1852 71.6062 40.1888L70.0268 36.2966L62.0925 36.2138L62.0484 35.5489Z" fill="#2C1B18"/>
<path fill-rule="evenodd" clip-rule="evenodd" d="M57.3046 133.445L86.9528 215.594L102.458 277.77L113.828 276.931L92.7389 130.831L57.3046 133.445Z" fill="#915B3C"/>
<path fill-rule="evenodd" clip-rule="evenodd" d="M57.3046 133.445L86.9528 215.594L102.458 277.77L113.828 276.931L92.7389 130.831L57.3046 133.445Z" fill="black" fill-opacity="0.1"/>
<path fill-rule="evenodd" clip-rule="evenodd" d="M46.4806 134.244C51.051 177.718 51.9643 201.547 51.8508 205.536C51.7373 209.525 51.36 236.211 39.8869 283.722L51.7132 282.85C68.0309 236.88 72.9996 209.854 74.8218 203.842C76.6447 197.829 81.5957 173.567 88.3611 131.154L46.4806 134.244Z" fill="#915B3C"/>
<path fill-rule="evenodd" clip-rule="evenodd" d="M56.7878 133.483C64.9668 161.9 78.8581 207.198 98.4611 269.379L115.092 268.152C112.012 203.073 103.952 160.685 92.8796 130.821L56.7878 133.483Z" fill="#060606"/>
<path fill-rule="evenodd" clip-rule="evenodd" d="M46.3964 134.25C50.9319 177.727 49.5136 220.995 39.7751 274.391L57.5191 273.082C73.9164 227.774 84.9203 184.012 90.9077 130.966L46.3964 134.25Z" fill="#060606"/>
<path fill-rule="evenodd" clip-rule="evenodd" d="M38.7741 292.49L38.7256 282.638C38.7235 282.211 39.1137 281.889 39.532 281.947C45.312 282.752 52.9893 279.415 52.9893 279.415C61.2755 284.498 72.8518 286.257 76.9189 286.739C77.706 286.833 78.257 287.588 78.0923 288.374L77.4059 291.645L53.9148 293.378L40.2113 294.389L38.7741 292.49Z" fill="#191847"/>
<path fill-rule="evenodd" clip-rule="evenodd" d="M100.581 287.931L100.532 278.079C100.53 277.651 100.92 277.33 101.339 277.388C107.119 278.192 114.796 274.856 114.796 274.856C123.082 279.938 134.658 281.697 138.725 282.18C139.513 282.273 140.064 283.029 139.899 283.814L139.213 287.085L115.721 288.818L102.018 289.829L100.581 287.931Z" fill="#191847"/>
<path fill-rule="evenodd" clip-rule="evenodd" d="M134.492 134.856L112.486 120.83L108.618 132.761L129.965 139.938C136.301 146.482 139.778 149.149 140.397 147.937C140.918 146.916 140.4 146.034 139.922 145.222C139.549 144.589 139.202 143.998 139.39 143.417C139.82 142.089 143.775 141.935 147.533 141.949C151.292 141.964 150.091 140.362 149.134 139.598C145.164 137.569 140.284 135.989 134.492 134.856ZM26.3205 170.412C27.9853 166.317 31.9936 127.308 31.9936 127.308L45.7376 126.349C45.7376 126.349 35.7649 168.83 34.9191 171.447C33.8204 174.846 36.3764 179.478 38.1097 182.619C38.3779 183.105 38.6263 183.555 38.8385 183.96C36.7958 185.068 35.7079 183.991 34.561 182.855C33.2655 181.573 31.8949 180.216 28.988 181.848C27.865 182.48 26.8108 183.205 25.7809 183.914C22.2233 186.363 18.9551 188.613 14.1376 186.067C13.3739 185.664 12.456 184 14.3086 182.511C18.9241 178.8 25.5066 172.414 26.3205 170.412Z" fill="#915B3C"/>
<path fill-rule="evenodd" clip-rule="evenodd" d="M67.1772 66.1262L72.7974 64.7206C95.1139 81.5917 106.125 116.353 133.226 133.199L127.519 141.46C82.2886 139.152 68.3079 96.7918 67.1772 66.1262Z" fill="#C5CFD6"/>
<path fill-rule="evenodd" clip-rule="evenodd" d="M47.181 140.205C47.181 140.205 81.3771 137.683 97.4883 136.494C99.7876 136.324 99.1319 133 98.6869 131.33C93.5566 112.066 77.1883 92.099 75.344 64.2735L60.6807 63.043C49.9719 83.4482 47.4141 107.787 47.181 140.205Z" fill="#C7D1D9"/>
<path fill-rule="evenodd" clip-rule="evenodd" d="M42.4497 154.585C40.5527 160.243 38.6531 165.198 36.8079 169.032L26.0187 169.828C22.3424 131.961 34.6164 101.71 45.3412 83.2248C42.6881 83.2287 40.2308 82.2873 38.5421 79.6497C32.5969 70.3636 34.1592 64.8942 39.7112 62.7247C42.7642 61.5317 45.7391 61.9728 49.3 62.5008C52.2141 62.9328 55.5212 63.4231 59.584 63.1238C59.5853 63.1237 59.5866 63.1236 59.5879 63.1235C59.9818 63.0945 60.3419 63.0947 60.6701 63.1218L65.5042 63.0443C65.5042 63.0443 89.4949 128.602 82.2132 151.651L42.4497 154.585Z" fill="#F2F2F2"/>
<path fill-rule="evenodd" clip-rule="evenodd" d="M42.4498 154.585C44.9388 147.162 47.4234 138.528 49.7752 129.628C51.4989 139.111 53.9503 148.583 57.3117 153.489L42.4498 154.585Z" fill="black" fill-opacity="0.1"/>
</g>
<path d="M54.791 341.425L40.7662 328.602L291.08 242.137L304.72 248.852L54.791 341.425Z" fill="#2704C4" fill-opacity="0.6" stroke="black"/>
<path d="M40.3085 328.183V174.749L54.1786 187.431V340.865L40.3085 328.183Z" fill="#2704C4" fill-opacity="0.8" stroke="black"/>
<path d="M54.8106 187.17L40.7721 173.84L276.608 100.968L290.646 114.297L54.8106 187.17Z" fill="#2704C4" fill-opacity="0.8" stroke="black"/>
<path d="M305.798 248.85L55.1786 341.283V187.771L290.875 115.272L278.889 157.169L278.809 157.448L279.011 157.655L300.179 179.371L291.206 217.19L291.166 217.359L291.239 217.516L305.798 248.85Z" fill="#2704C4" fill-opacity="0.75" stroke="black"/>
<path d="M274.172 120.67L290.868 115.287L278.738 157.265L278.656 157.547L278.862 157.755L300.151 179.283L297.071 193.372L291.125 217.033L291.082 217.205L291.157 217.366L305.694 248.417H305.609L291.475 241.219L277.772 217.087L287.631 181.068L287.71 180.779L287.493 180.573L263.426 157.773L274.172 120.67Z" fill="#2704C4" fill-opacity="0.6" stroke="#180084"/>
<path d="M171.661 144.056C172.2 147.116 169.382 149.434 164.736 150.253C160.09 151.072 154.398 149.562 153.859 146.502C153.319 143.442 157.625 140.818 162.271 139.998C166.917 139.179 171.121 140.996 171.661 144.056Z" fill="black"/>
<path d="M169.969 141.408C170.17 142.548 169.64 143.722 168.509 144.71C167.379 145.698 165.65 146.496 163.47 146.881C161.29 147.265 159.235 147.143 157.677 146.636C156.116 146.128 155.066 145.241 154.866 144.105C154.664 142.961 155.188 141.482 156.313 140.189C157.437 138.897 159.157 137.798 161.332 137.415C163.507 137.031 165.567 137.456 167.134 138.265C168.703 139.075 169.767 140.266 169.969 141.408Z" fill="#FF003D" stroke="black" stroke-width="0.1"/>
<defs>
<clipPath id="clip0_306_48">
<rect width="116.101" height="252.423" fill="white" transform="matrix(0.997925 -0.0643929 0.0578767 0.998324 142.908 7.47607)"/>
</clipPath>
<clipPath id="clip1_306_48">
<rect width="143.784" height="269.665" fill="white" transform="matrix(0.99729 -0.0735731 0.066136 0.997811 0 30.5221)"/>
</clipPath>
</defs>
</svg>
