<svg width="334" height="113" viewBox="0 0 334 113" fill="none" xmlns="http://www.w3.org/2000/svg">
<g filter="url(#filter0_d_246_9)">
<path d="M4.4611 18.6521H311.297V104.643L296.768 99.3528L296.654 99.3112L296.55 99.3753L287.897 104.75H112.701L97.3571 100.429L97.2529 100.4L97.1601 100.456L90.0436 104.75H4.25V35.7959L9.84787 27.1983L9.93669 27.0619L9.84787 26.9255L4.4611 18.6521Z" fill="#2704C4" stroke="#313030" stroke-width="0.5"/>
<path d="M91.5826 4.02913L91.6454 4.04699L91.7089 4.03184L107.57 0.25H211.059L222.826 2.41084L222.891 2.42285L222.954 2.40077L229.065 0.25H329.395L311.444 18.1521H4.60473L22.5562 0.25H78.2891L91.5826 4.02913Z" fill="#2704C4" stroke="#313030" stroke-width="0.5"/>
<g filter="url(#filter1_i_246_9)">
<path d="M311.547 18.4021L330 0V86.5979L311.547 105V18.4021Z" fill="#15008D"/>
</g>
<path d="M311.797 104.398V18.5058L329.75 0.602379V86.4942L311.797 104.398Z" stroke="#313030" stroke-width="0.5"/>
</g>
<defs>
<filter id="filter0_d_246_9" x="0" y="0" width="334" height="113" filterUnits="userSpaceOnUse" color-interpolation-filters="sRGB">
<feFlood flood-opacity="0" result="BackgroundImageFix"/>
<feColorMatrix in="SourceAlpha" type="matrix" values="0 0 0 0 0 0 0 0 0 0 0 0 0 0 0 0 0 0 127 0" result="hardAlpha"/>
<feOffset dy="4"/>
<feGaussianBlur stdDeviation="2"/>
<feComposite in2="hardAlpha" operator="out"/>
<feColorMatrix type="matrix" values="0 0 0 0 0 0 0 0 0 0 0 0 0 0 0 0 0 0 0.25 0"/>
<feBlend mode="normal" in2="BackgroundImageFix" result="effect1_dropShadow_246_9"/>
<feBlend mode="normal" in="SourceGraphic" in2="effect1_dropShadow_246_9" result="shape"/>
</filter>
<filter id="filter1_i_246_9" x="311.547" y="0" width="18.4529" height="109" filterUnits="userSpaceOnUse" color-interpolation-filters="sRGB">
<feFlood flood-opacity="0" result="BackgroundImageFix"/>
<feBlend mode="normal" in="SourceGraphic" in2="BackgroundImageFix" result="shape"/>
<feColorMatrix in="SourceAlpha" type="matrix" values="0 0 0 0 0 0 0 0 0 0 0 0 0 0 0 0 0 0 127 0" result="hardAlpha"/>
<feOffset dy="4"/>
<feGaussianBlur stdDeviation="2"/>
<feComposite in2="hardAlpha" operator="arithmetic" k2="-1" k3="1"/>
<feColorMatrix type="matrix" values="0 0 0 0 0 0 0 0 0 0 0 0 0 0 0 0 0 0 0.25 0"/>
<feBlend mode="normal" in2="shape" result="effect1_innerShadow_246_9"/>
</filter>
</defs>
</svg>
