<?xml version="1.0" encoding="UTF-8"?>
<svg xmlns="http://www.w3.org/2000/svg" xmlns:xlink="http://www.w3.org/1999/xlink" viewBox="0 0 120 120" width="120px" height="120px">
<g id="surface55198216">
<path style=" stroke:none;fill-rule:nonzero;fill:rgb(100%,0%,23.921569%);fill-opacity:1;" d="M 60 12 C 48.125 12 37.210938 16.332031 28.828125 23.5 C 27.683594 24.410156 27.128906 25.875 27.378906 27.316406 C 27.628906 28.753906 28.644531 29.945312 30.03125 30.417969 C 31.414062 30.886719 32.945312 30.566406 34.023438 29.578125 C 41.015625 23.601562 50.066406 20 60 20 C 80.785156 20 97.804688 35.75 99.804688 56 L 88 56 L 104 80 L 120 56 L 107.796875 56 C 105.75 31.40625 85.113281 12 60 12 Z M 16 40 L 0 64 L 12.203125 64 C 14.25 88.59375 34.886719 108 60 108 C 71.875 108 82.789062 103.667969 91.171875 96.5 C 92.316406 95.589844 92.871094 94.125 92.621094 92.683594 C 92.371094 91.246094 91.355469 90.054688 89.96875 89.582031 C 88.585938 89.113281 87.054688 89.433594 85.976562 90.421875 C 78.984375 96.398438 69.933594 100 60 100 C 39.214844 100 22.195312 84.25 20.195312 64 L 32 64 Z M 16 40 "/>
</g>
</svg>
