<svg width="455" height="183" viewBox="0 0 455 183" fill="none" xmlns="http://www.w3.org/2000/svg">
<path d="M56 5.5L153.5 0.5L205 5.5H262L293.5 12L333 5.5H455L399 31H0L56 5.5Z" fill="#FF003D" fill-opacity="0.9"/>
<path d="M0 31H399V175L324 170L233.5 175L194 170L111 182.5L50.5 175H21H0L4.5 156.5L0 138V31Z" fill="#FF003D" fill-opacity="0.9"/>
<path d="M0.5 137.94V31.5H398.5V174.466L324.033 169.501L324.003 169.499L323.972 169.501L233.518 174.498L194.063 169.504L193.994 169.495L193.926 169.506L110.993 181.995L50.5615 174.504L50.5309 174.5H50.5H21H0.636202L4.98583 156.618L5.01458 156.5L4.98583 156.382L0.5 137.94Z" stroke="black" stroke-opacity="0.1"/>
<path d="M399 31L455 5.5V46.5L448.5 84.5L455 114V143.5L399 175V31Z" fill="#FF003D"/>
<path d="M448.007 84.4157L447.991 84.5121L448.012 84.6076L454.5 114.054V143.208L399.5 174.145V31.3217L454.5 6.27708V46.4575L448.007 84.4157Z" stroke="black" stroke-opacity="0.2"/>
<path d="M135.176 118.576C132.904 118.576 130.808 118.16 128.888 117.328C127 116.464 125.448 115.248 124.232 113.68L128.552 108.496C130.376 110.96 132.456 112.192 134.792 112.192C137.96 112.192 139.544 110.336 139.544 106.624V90.64H127.736V84.4H147.272V106.192C147.272 110.32 146.248 113.424 144.2 115.504C142.152 117.552 139.144 118.576 135.176 118.576ZM171.225 118.576C167.737 118.576 164.585 117.824 161.769 116.32C158.985 114.816 156.793 112.752 155.193 110.128C153.625 107.472 152.841 104.496 152.841 101.2C152.841 97.904 153.625 94.944 155.193 92.32C156.793 89.664 158.985 87.584 161.769 86.08C164.585 84.576 167.737 83.824 171.225 83.824C174.713 83.824 177.849 84.576 180.633 86.08C183.417 87.584 185.609 89.664 187.209 92.32C188.809 94.944 189.609 97.904 189.609 101.2C189.609 104.496 188.809 107.472 187.209 110.128C185.609 112.752 183.417 114.816 180.633 116.32C177.849 117.824 174.713 118.576 171.225 118.576ZM171.225 111.952C173.209 111.952 175.001 111.504 176.601 110.608C178.201 109.68 179.449 108.4 180.345 106.768C181.273 105.136 181.737 103.28 181.737 101.2C181.737 99.12 181.273 97.264 180.345 95.632C179.449 94 178.201 92.736 176.601 91.84C175.001 90.912 173.209 90.448 171.225 90.448C169.241 90.448 167.449 90.912 165.849 91.84C164.249 92.736 162.985 94 162.057 95.632C161.161 97.264 160.713 99.12 160.713 101.2C160.713 103.28 161.161 105.136 162.057 106.768C162.985 108.4 164.249 109.68 165.849 110.608C167.449 111.504 169.241 111.952 171.225 111.952ZM210.381 118.576C205.581 118.576 201.837 117.248 199.149 114.592C196.493 111.936 195.165 108.144 195.165 103.216V84.4H202.941V102.928C202.941 108.944 205.437 111.952 210.429 111.952C212.861 111.952 214.717 111.232 215.997 109.792C217.277 108.32 217.917 106.032 217.917 102.928V84.4H225.597V103.216C225.597 108.144 224.253 111.936 221.565 114.592C218.909 117.248 215.181 118.576 210.381 118.576ZM259.297 111.76V118H233.281V84.4H258.673V90.64H241.009V97.936H256.609V103.984H241.009V111.76H259.297ZM286.892 118L280.412 108.64H280.028H273.26V118H265.484V84.4H280.028C283.004 84.4 285.58 84.896 287.756 85.888C289.964 86.88 291.66 88.288 292.844 90.112C294.028 91.936 294.62 94.096 294.62 96.592C294.62 99.088 294.012 101.248 292.796 103.072C291.612 104.864 289.916 106.24 287.708 107.2L295.244 118H286.892ZM286.748 96.592C286.748 94.704 286.14 93.264 284.924 92.272C283.708 91.248 281.932 90.736 279.596 90.736H273.26V102.448H279.596C281.932 102.448 283.708 101.936 284.924 100.912C286.14 99.888 286.748 98.448 286.748 96.592Z" fill="white"/>
</svg>
