<svg width="455" height="183" viewBox="0 0 455 183" fill="none" xmlns="http://www.w3.org/2000/svg">
<path d="M56 5.5L153.5 0.5L205 5.5H262L293.5 12L333 5.5H455L399 31H0L56 5.5Z" fill="#2704C4"/>
<path d="M293.399 12.4897L293.49 12.5084L293.581 12.4934L333.041 6H452.695L398.892 30.5H2.30456L56.1206 5.99447L153.489 1.00124L204.952 5.99766L204.976 6H205H261.949L293.399 12.4897Z" stroke="black" stroke-opacity="0.6"/>
<path d="M0 31H399V175L324 170L233.5 175L194 170L111 182.5L50.5 175H21H0L4.5 156.5L0 138V31Z" fill="#2704C4"/>
<path d="M0.5 137.94V31.5H398.5V174.466L324.033 169.501L324.003 169.499L323.972 169.501L233.518 174.498L194.063 169.504L193.994 169.495L193.926 169.506L110.993 181.995L50.5615 174.504L50.5309 174.5H50.5H21H0.636202L4.98583 156.618L5.01458 156.5L4.98583 156.382L0.5 137.94Z" stroke="black" stroke-opacity="0.1"/>
<path d="M399 31L455 5.5V46.5L448.5 84.5L455 114V143.5L399 175V31Z" fill="#2704C4"/>
<path d="M448.007 84.4157L447.991 84.5121L448.012 84.6076L454.5 114.054V143.208L399.5 174.145V31.3217L454.5 6.27708V46.4575L448.007 84.4157Z" stroke="black" stroke-opacity="0.6"/>
<path d="M126.176 108.576C123.904 108.576 121.808 108.16 119.888 107.328C118 106.464 116.448 105.248 115.232 103.68L119.552 98.496C121.376 100.96 123.456 102.192 125.792 102.192C128.96 102.192 130.544 100.336 130.544 96.624V80.64H118.736V74.4H138.272V96.192C138.272 100.32 137.248 103.424 135.2 105.504C133.152 107.552 130.144 108.576 126.176 108.576ZM162.225 108.576C158.737 108.576 155.585 107.824 152.769 106.32C149.985 104.816 147.793 102.752 146.193 100.128C144.625 97.472 143.841 94.496 143.841 91.2C143.841 87.904 144.625 84.944 146.193 82.32C147.793 79.664 149.985 77.584 152.769 76.08C155.585 74.576 158.737 73.824 162.225 73.824C165.713 73.824 168.849 74.576 171.633 76.08C174.417 77.584 176.609 79.664 178.209 82.32C179.809 84.944 180.609 87.904 180.609 91.2C180.609 94.496 179.809 97.472 178.209 100.128C176.609 102.752 174.417 104.816 171.633 106.32C168.849 107.824 165.713 108.576 162.225 108.576ZM162.225 101.952C164.209 101.952 166.001 101.504 167.601 100.608C169.201 99.68 170.449 98.4 171.345 96.768C172.273 95.136 172.737 93.28 172.737 91.2C172.737 89.12 172.273 87.264 171.345 85.632C170.449 84 169.201 82.736 167.601 81.84C166.001 80.912 164.209 80.448 162.225 80.448C160.241 80.448 158.449 80.912 156.849 81.84C155.249 82.736 153.985 84 153.057 85.632C152.161 87.264 151.713 89.12 151.713 91.2C151.713 93.28 152.161 95.136 153.057 96.768C153.985 98.4 155.249 99.68 156.849 100.608C158.449 101.504 160.241 101.952 162.225 101.952ZM201.381 108.576C196.581 108.576 192.837 107.248 190.149 104.592C187.493 101.936 186.165 98.144 186.165 93.216V74.4H193.941V92.928C193.941 98.944 196.437 101.952 201.429 101.952C203.861 101.952 205.717 101.232 206.997 99.792C208.277 98.32 208.917 96.032 208.917 92.928V74.4H216.597V93.216C216.597 98.144 215.253 101.936 212.565 104.592C209.909 107.248 206.181 108.576 201.381 108.576ZM250.297 101.76V108H224.281V74.4H249.673V80.64H232.009V87.936H247.609V93.984H232.009V101.76H250.297ZM277.892 108L271.412 98.64H271.028H264.26V108H256.484V74.4H271.028C274.004 74.4 276.58 74.896 278.756 75.888C280.964 76.88 282.66 78.288 283.844 80.112C285.028 81.936 285.62 84.096 285.62 86.592C285.62 89.088 285.012 91.248 283.796 93.072C282.612 94.864 280.916 96.24 278.708 97.2L286.244 108H277.892ZM277.748 86.592C277.748 84.704 277.14 83.264 275.924 82.272C274.708 81.248 272.932 80.736 270.596 80.736H264.26V92.448H270.596C272.932 92.448 274.708 91.936 275.924 90.912C277.14 89.888 277.748 88.448 277.748 86.592Z" fill="white"/>
</svg>
